<svg xmlns="http://www.w3.org/2000/svg" width="48" height="48" viewBox="0 0 48 48">
  <rect x="0" y="0" width="48" height="48" rx="10" fill="#1a1a2e"/>
  <path d="M22 11c4 0 7 3 7 7 0 3-2 5-2 8 0 2 1 3 1 5 0 2-2 3-4 3-3 0-5-2-5-6 0-2-1-3-3-4-2-1-3-3-3-6 0-5 4-7 9-7z" fill="#0D9488"/>
  <circle cx="20" cy="18" r="1.6" fill="#1a1a2e"/>
  <path d="M28 16l4-3" stroke="#0D9488" stroke-width="2.5" stroke-linecap="round"/>
  <path d="M34 30v10M29 35h10" stroke="#0D9488" stroke-width="3" stroke-linecap="round"/>
</svg>
